<svg xmlns="http://www.w3.org/2000/svg" viewBox="0 0 512 512"><circle cx="257" cy="256" r="39"/><path d="M257 142a114 114 0 1 0 0 228 114 114 0 0 0 0-228zm0 188a74 74 0 1 1 0-148 74 74 0 0 1 0 148z"/><path d="M499 212c-11-16-41-58-89-94-50-37-101-56-154-56-52 0-103 19-153 56-49 36-79 78-90 94a80 80 0 0 0 0 88c11 16 41 58 90 94 50 37 101 56 153 56 81 0 145-45 185-82a20 20 0 1 0-27-30c-35 33-90 72-158 72-97 0-177-83-209-132a40 40 0 0 1 0-44c32-49 112-132 209-132 98 0 178 83 210 132a40 40 0 0 1 0 44 20 20 0 0 0 33 22c17-27 17-61 0-88z"/></svg>