<svg xmlns="http://www.w3.org/2000/svg" viewBox="0 0 128 128" stroke-width="2"><path d="m116.6 104.1-5.9-69.6c-.4-4.5-4.4-8-9.3-8H89.7V26C89.7 12.9 78.2 2.2 64 2.2S38.3 12.9 38.3 26.1v.5H26.6c-4.8 0-8.9 3.5-9.3 8l-5.9 69.6c-.5 5.6 1.6 11.1 5.7 15.2s9.9 6.5 15.9 6.5h62c6 0 11.8-2.4 15.9-6.5s6.2-9.7 5.7-15.3zm-70.5-78c0-9.2 8-16.7 17.9-16.7s17.9 7.5 17.9 16.7v.5H46.1v-.5zm59.1 88.4c-2.7 2.7-6.3 4.1-10.2 4.1H33c-3.9 0-7.5-1.5-10.2-4.1-2.7-2.7-3.9-6.1-3.6-9.7l5.9-69.6c.1-.7.7-1.3 1.5-1.3h11.7v8.9c0 2 1.7 3.6 3.9 3.6 2.1 0 3.9-1.6 3.9-3.6v-8.9h35.8v8.9c0 2 1.7 3.6 3.9 3.6s3.9-1.6 3.9-3.6v-8.9h11.7c.8 0 1.5.6 1.5 1.3l5.9 69.6c.3 3.5-1 7-3.6 9.7z"/></svg>