<svg xmlns="http://www.w3.org/2000/svg" viewBox="0 0 512 512"><path d="M471.7 79.2A135.7 135.7 0 0 0 374 39.7c-66.1 0-100.3 34-117.4 62.5l-.6 1.1a118.2 118.2 0 0 0-.6-1C238.4 73.6 204 39.6 138 39.6c-37.8 0-72.5 14-97.7 39.5C14 105.9 0 142.5 0 184.9c0 90.2 80.2 150 151 202.8 35.2 26.3 68.5 51.1 89.4 77.2a20 20 0 0 0 31.2 0 305.5 305.5 0 0 1 47.1-44.8 20 20 0 0 0-25-31.2c-15.1 12-27.5 23-37.7 33.5-22.6-23-51.2-44.4-81.2-66.8C108.5 306.2 40 255.1 40 185c0-62 40.3-105.2 98-105.2 37.5 0 65.2 14 82.3 42 13.6 22 15.7 45 15.8 45.2a20 20 0 0 0 39.8 0c0-.2 2.2-23.2 15.8-45.3 17-27.8 44.8-42 82.3-42 57.7 0 98 43.4 98 105.3 0 58-47.3 103-98.3 143a20 20 0 0 0 24.6 31.6c24.3-19 55.1-44.8 77.8-75 24.1-32.2 35.9-64.8 35.9-99.6 0-42.4-14-79-40.3-105.7z"/></svg>