<svg xmlns="http://www.w3.org/2000/svg" viewBox="0 0 255.86 255.86"><path d="M127.93 38.8c-30.75 0-55.77 25.02-55.77 55.77s25.02 55.76 55.77 55.76 55.77-25.01 55.77-55.76-25.02-55.77-55.77-55.77zm0 96.53c-22.48 0-40.77-18.29-40.77-40.76s18.29-40.77 40.77-40.77 40.77 18.29 40.77 40.77-18.3 40.76-40.77 40.76z"/><path d="M127.93 0C75.78 0 33.36 42.42 33.36 94.57c0 30.07 25.22 74.87 40.25 98.9 9.9 15.8 20.52 30.86 29.93 42.37 15.1 18.47 20.5 20.02 24.39 20.02 3.94 0 9.04-1.55 24.1-20.04 9.42-11.57 20.06-26.61 29.94-42.34 15.13-24.09 40.52-68.97 40.52-98.91C222.5 42.42 180.07 0 127.94 0zm43.64 181.8c-19.4 31.49-37.2 52.76-43.73 58.2-6.56-5.27-24.08-26.04-43.75-58.1-22.7-37.01-35.73-68.85-35.73-87.33 0-43.88 35.7-79.57 79.57-79.57 43.87 0 79.56 35.7 79.56 79.57 0 18.38-13.09 50.17-35.92 87.23z"/></svg>