<svg width="24" height="24" fill="none" xmlns="http://www.w3.org/2000/svg"><circle cx="12" cy="12" r="12" fill="url(#a)"/><path fill-rule="evenodd" clip-rule="evenodd" d="m15.22 7.18-3.015-2.962c-.103-.1-.204-.1-.307 0L8.882 7.18c-.153.151-.05.352.154.352h1.38c.102 0 .204.1.204.2v2.41c0 .1.102.2.204.2h2.454c.102 0 .204-.1.204-.2v-2.41c0-.1.102-.2.204-.2h1.33c.204 0 .306-.2.204-.352zm4.703 4.97-3.016 2.963c-.102.15-.307.05-.358-.152V9.038c0-.2.205-.302.358-.151l3.016 2.962c.103.1.103.2 0 .301zm-15.846 0 3.016 2.963c.153.15.358.05.357-.152V9.038c0-.2-.204-.302-.357-.15l-3.016 2.961c-.103.1-.103.2 0 .301zm8.128 7.632 3.015-2.963c.102-.15 0-.351-.205-.35h-1.33c-.1 0-.203-.1-.203-.201v-2.41c0-.1-.102-.2-.204-.2h-2.454c-.102 0-.204.1-.204.2v2.41c0 .1-.102.2-.204.2h-1.38c-.205 0-.307.2-.154.351l3.016 2.963c.103.1.204.1.307 0z" fill="#fff"/><defs><linearGradient id="a" x1="4.24" y1="2.907" x2="19.14" y2="21.419" gradientUnits="userSpaceOnUse"><stop stop-color="#F21B26"/><stop offset="1" stop-color="#E61721"/></linearGradient></defs></svg>