<svg xmlns="http://www.w3.org/2000/svg" width="52.83" height="76.898" viewBox="0 0 13.978 20.346"><path d="m13.37 288.334-6.737-1.524a3.728 3.728 0 1 1 2.808-.482l-.003.002a.093.093 0 0 0 .032.166l2.997.678a.186.186 0 0 0 .19-.07 6.504 6.504 0 0 0 1.321-3.929 6.522 6.522 0 0 0-6.412-6.52 7.455 7.455 0 0 0-6.217 11.729l5.993 8.558a.14.14 0 0 0 .226 0l5.886-8.394a.14.14 0 0 0-.084-.214" style="fill:#fabc26;fill-opacity:1;fill-rule:nonzero;stroke:none;stroke-width:.03307291" transform="translate(0 -276.654)"/></svg>