<svg xmlns="http://www.w3.org/2000/svg" viewBox="0 0 512 512"><path d="M246 389L7 179v325h498V179L266 389c-6 4-14 4-20 0z" fill="#eaf9fa"/><path d="M505 179v325h-21V196z" fill="#dcf5f8"/><path d="M256 55L7 179l239 210c6 4 14 4 20 0l239-210z" fill="#d4f2f6"/><path d="M505 179l-17 14L233 66l23-11z" fill="#a6e7f0"/><path d="M435 240V70L380 8H89c-7 0-12 5-12 12v220l169 149c6 4 14 4 20 0z" fill="#faf7f7"/><path d="M435 70v170l-20 17V48l-1-2z" fill="#ede1dd"/><circle cx="256" cy="178.8" fill="#ade194" r="97.7"/><path d="M354 179a98 98 0 01-154 80 98 98 0 0094-170c35 15 60 49 60 90z" fill="#97da7b"/><path d="M242 224c-4 0-8-2-11-5l-26-25a16 16 0 0122-23l15 14 42-46a16 16 0 1124 21l-54 59a16 16 0 01-12 5z" fill="#fee45a"/><path d="M308 160l-54 59c-3 3-7 5-11 5h-1c-4 0-8-2-11-5l-5-5h3c5 0 9-2 12-5l58-62c3-4 4-8 4-12l4 3c6 6 7 16 1 22z" fill="#fed402"/><path d="M380 8v52c0 6 5 10 10 10h45z" fill="#e1d3ce"/><path d="M248 347L7 504h498L264 347c-5-4-11-4-16 0z" fill="#d4f2f6"/><path d="M505 504h-34L240 353l-1-1 9-5c5-4 11-4 16 0z" fill="#a6e7f0"/><path d="M361 179a105 105 0 10-210 0 105 105 0 00210 0zm-195 0a90 90 0 11180 0 90 90 0 01-180 0z"/><path d="M260 224l8-10a7 7 0 00-11-10l-8 10-6 2h-1l-5-2-27-26a8 8 0 0112-12l15 15a7 7 0 0010-1l43-46a8 8 0 0112-1c3 4 3 9 0 12l-21 24a7 7 0 1011 10l21-23a23 23 0 00-34-32l-38 40-9-9a23 23 0 00-32 34l26 26a23 23 0 0034-1z"/><path d="M512 179l-1-4a7 7 0 00-3-3l-66-32V70l-1-5-55-62-6-3H89C78 0 70 9 70 20v120L4 172l-3 2-1 5v186a7 7 0 1015 0V195l57 51 135 118L15 490v-91a7 7 0 10-15 0v105c0 4 3 8 7 8h498a8 8 0 007-8V179zM70 223l-49-43 49-24v67zm372-67l49 24-49 43zM388 28l23 26 7 9h-28l-2-3V28zM85 237V20c0-3 1-5 4-5h284v45c0 10 8 18 17 18h37v159L312 338l-20 18-24-16c-7-4-17-4-24 0l-24 16zM33 497l219-144c2-2 6-2 8 0l219 144zm464-7L305 364l5-5 187-164v295z"/></svg>