<svg xmlns="http://www.w3.org/2000/svg" viewBox="0 0 336.18 124.06"><path d="M335.4,26.61c-1.58-12.88-6.09-16.46-6.09-16.46-13.83-13.26-31.09-10.4-46.59-8.5-27.37.08-54.64,2.91-82,4.43C143.45,6.31,85.63,2.5,28.6,11.9,23.24,14.79-5.56,12.47,1,28.26,2.66,34.82,8.89,42.11,8.7,48.14c.85,1.06,2-1.37,2.54.15,1.77,4.1,4.66,2.17,7,4.59C15,59.34,17.34,64.73,19.6,70.37c-4,1.46-9.08.77-11.38,5.64C8,79.54,6.71,78.87,5.3,78.71c-1-.1-3.1.28-2.75,1.39,1.19,3.79-3.9,6-.71,9.68-2.2,4,1.52,7.5,1,11.85a1.73,1.73,0,0,0,.84,1.83c2.45,1.11-1.12,3.27-.75,5.62,25.13,16,52.4,4.94,78.14,12.31,6.69-5.15,1.66,1.82,4.33.74,2.09-1.26,3.61,4,6,1,.37-.85-.19-2.86,1.11-2.47.68.2,1.28.15,1.37-1,.15-1.78-1.1-.67-1.44-1.6,3.59-4.69,2.71,6.46,6.07,6-.15-1.37-1.13-3.32.87-3.07,2-2,2.06-3.58,3.83.83a2.94,2.94,0,0,0,.88,2.08c5.53-4.79,11,1.7,16.83-.46,3.56-2.37,7,1.29,10.58.39,1.26-.72,2.54-2,3.76.15,14.9.47,30.79-1.47,44.92.08,37.75-2.89,78.1,1.18,117.91-2.63,9.39-1.47,19.14-3.55,28.3-5.23,0,0,7.41-4.58,7.41-25.18s1.58-18,1.82-34.44,1.34-17.07-.24-29.95Z" style="fill:#010101"/><path d="M71.47,99.65h0c-3.51,0-6.16-.87-7.95-2.59a9.52,9.52,0,0,1-2.69-7.19h0L61,87.76c0-.51-.12-.77-.38-.77h0l-.57.39a71.92,71.92,0,0,1-4.8,7A51.78,51.78,0,0,1,51.44,99h0l-1.34,1.25c-.9.83-1.57,1.25-2,1.25s-.67-.39-.67-1.15h0a9.71,9.71,0,0,1,1-3.74h0q1.44-3.17,4-8.48T62.52,69.2q7.6-13.56,14.8-23.91h0q7.29-10.55,11.31-14.38h0c1-1,1.7-1.43,2.21-1.43h0c.32,0,.48.25.48.76h0c0,.13-.07.58-.2,1.34h0q-.86,3.84-6.8,14.1h0Q72.43,65,67.06,77.12h0a27.51,27.51,0,0,0-3.54,12.56h0A8,8,0,0,0,65.24,95a6,6,0,0,0,4.79,2h0a13.17,13.17,0,0,0,8.59-3.55A30.61,30.61,0,0,0,85.56,85a58.82,58.82,0,0,0,4.51-10.16,28.6,28.6,0,0,0,1.73-8.73h0q0-8.52-7.87-10.35h0a3.31,3.31,0,0,1-.09-.77h0c0-.76.45-1.21,1.34-1.34h0a18.43,18.43,0,0,0,13.13-5.52,17.08,17.08,0,0,0,5.76-12.69h0a10,10,0,0,0-3-7.15q-3-3.11-11-3.11h0Q81.34,25.16,76,30T70.61,40.88h0a7.38,7.38,0,0,0,.67,3.17h0a2.88,2.88,0,0,1,.38,1.24h0a.51.51,0,0,1-.57.58h0a2,2,0,0,1-.86-.19h0c-.45-.2-1-.45-1.63-.77a9.31,9.31,0,0,1-2.53-2.4,6.47,6.47,0,0,1-1.6-4.22h0q0-6.32,7.77-10.89T91,22.86h0c.77,0,1.65,0,2.64.1a34.51,34.51,0,0,1,4.84.86,25.81,25.81,0,0,1,5.9,2.05A13,13,0,0,1,109,30a10.79,10.79,0,0,1,2,6.52h0a14.47,14.47,0,0,1-1.86,7.23,17.25,17.25,0,0,1-5,5.56A32.85,32.85,0,0,1,97.6,53a39,39,0,0,1-7,2.21h0c-.45.19-.67.38-.67.57h0q0,.19.57.48h0a8.21,8.21,0,0,0,.87.48,11.61,11.61,0,0,1,2,1.53A18.58,18.58,0,0,1,95.78,61a14.63,14.63,0,0,1,2,4.06,17.34,17.34,0,0,1,.86,5.46h0q0,11-8.18,20.08T71.47,99.65Zm88.87-69.31h0q-4.32,0-11.79,6.71h0a9.56,9.56,0,0,0-3.07,3.45h0q-3.07,8.05-6,25.44t-3,25.75h0c0,1.79.06,3.37.19,4.73a18.73,18.73,0,0,0,.38,2.75h0l.19.76c.13.64.2,1,.2,1.06h0q0,1-1,1.05h0a4.53,4.53,0,0,1-2.59-1.19,11.78,11.78,0,0,1-2.78-3.31h0q-2.4-4.23-2.4-12.75h0q0-13.14,6.23-32.12h0a8.1,8.1,0,0,0,.29-1.53h0c0-.45-.13-.67-.38-.67h0l-1.25.77q-7,5.65-15.34,16.58h0q-3,3.84-5.75,8.24t-4,6.91h0l-1.25,2.49a46,46,0,0,1-7,10.45q-4.7,5.46-7.86,5.46h0a.93.93,0,0,1-1.05-1.05h0l.28-1.25q1.07-3,8.92-18.37t12.56-23.52h0q4.5-7.77,8.82-14.67t6.42-9.87h0l2.11-3.07c.32-.45.73-1,1.24-1.69a16.88,16.88,0,0,1,3.17-2.72,8.63,8.63,0,0,1,4.69-1.82h0a.93.93,0,0,1,1.06,1.05h0a3.27,3.27,0,0,1-.48,1.54h0q-12.27,19.65-17.54,30.58h0a5.39,5.39,0,0,0-.1,1h0c0,.38.1.57.29.57h0c.25,0,.64-.25,1.15-.77h0l9.78-9.87Q158.71,23,166,22.86h0c1.79,0,2.69,1.06,2.69,3.16h0a10.28,10.28,0,0,1-1.5,5.12c-1,1.77-1.92,2.65-2.82,2.65h0c-.38,0-.6-.26-.67-.77h0c-.06-.19-.15-.43-.25-.71a3.46,3.46,0,0,0-1-1.21A3.07,3.07,0,0,0,160.34,30.34ZM188.6,68.16h0a11.48,11.48,0,0,1-9.38,6.32h0q-1.53.19-4.41.39h0l-9.49,17.92a14.61,14.61,0,0,1-4.95,4.6,11.72,11.72,0,0,1-6,1.92h0c-.76,0-1.15-.42-1.15-1.25h0l.1-.76q1.44-3.17,12.25-22.24H163l-18.79-.58c-1.28-.06-1.92-.6-1.92-1.63h0l.39-1.44q1.53-1.72,4.25-4.65T157.4,56.12q7.71-7.71,14.63-13.94A177.77,177.77,0,0,1,187.16,30q8.26-5.94,13.73-7.67h0a7.27,7.27,0,0,1,1.13-.09h0c1.28,0,1.91.41,1.91,1.24h0a2,2,0,0,1-.17.87h0q-.58,1.24-4.37,7.76t-9.91,17.06q-6.15,10.55-10.35,17.93h0c1.4-.06,2.78-.15,4.12-.25s2.39-.18,3.2-.29,1.32-.13,1.59-.13h0c.64,0,1,.22,1,.67h0A2.39,2.39,0,0,1,188.6,68.16Zm-18.49-.63,19.37-33.07a3,3,0,0,0,.38-1.15.33.33,0,0,0-.38-.38h0l-1.06.38a150.43,150.43,0,0,0-16.54,13.27A165,165,0,0,0,159.36,59.1h0l-4.2,4.79a2.32,2.32,0,0,0-.67,1.53h0c0,.64.48,1.06,1.44,1.25h0a125.28,125.28,0,0,0,14.18.86ZM231.25,27h0q-6.6,0-15.08,10.45a98.27,98.27,0,0,0-14.29,24.29q-5.81,13.86-5.81,23.55h0q0,9.11,5.76,9.1h0q5.94,0,12.55-7.15a72.31,72.31,0,0,0,11.51-16.87A145.9,145.9,0,0,0,234,50.85q3.27-9.78,3.26-15.24h0Q237.29,27,231.25,27Zm3.07-3.35h0q5.66,0,8.69,3.93t3,10.73h0q0,8.82-4.83,19.6a92.44,92.44,0,0,1-12,19.75,74.34,74.34,0,0,1-16,15.07q-8.87,6.08-16.35,6.07h0A8.93,8.93,0,0,1,189,94.89Q186.3,91,186.3,84.21h0q0-7,3.5-17.06A92.94,92.94,0,0,1,200,46.83q6.72-10.26,14.38-15.92h0Q224.27,23.64,234.32,23.63Zm19.85,23.58h0q7.47,0,12.17,4.22T271,63h0q0,9.19-5.75,18.31a47,47,0,0,1-15.05,14.89A35.25,35.25,0,0,1,231.35,102h0a25,25,0,0,1-3.16-.19,18.28,18.28,0,0,1-2.21-.38h0l-.67-.1a1.37,1.37,0,0,1-.57-1.05h0a.69.69,0,0,1,.44-.62,3.14,3.14,0,0,1,.8-.34h0l.39-.1a29.94,29.94,0,0,0,17.15-5.71A44.7,44.7,0,0,0,256.75,79.8q4.89-8.05,4.89-15.34h0a10.08,10.08,0,0,0-1.34-5.36A7.5,7.5,0,0,0,256.81,56,21.49,21.49,0,0,0,253,54.73a17.86,17.86,0,0,0-3.42-.33h0a9.18,9.18,0,0,0-1.34.13,7.36,7.36,0,0,1-1.24.16h0c-.9,0-1.35-.35-1.35-1.06h0l.2-.86q.76-1.82,4.65-8.44T257.81,32h0l3.45-5.75a2.34,2.34,0,0,1,2.11-.87h0l2.3.1c1.47.06,3.34.13,5.62.19s4.38.1,6.36.1h0a48.86,48.86,0,0,0,9.49-.58h0a3,3,0,0,1,.67-.09h0c.64,0,1,.28,1,.86h0c0,1.21-.84,2.89-2.53,5a8.09,8.09,0,0,1-6.67,3.22h0c-1,0-2.37,0-4-.06l-3.54,0h0a73.09,73.09,0,0,0-10.64.48h0a3.16,3.16,0,0,0-2.69,1.82h0q-4.7,7.47-5.27,9.39h0a2.59,2.59,0,0,0-.1.67h0C253.3,47,253.59,47.21,254.17,47.21Z" style="fill:#fff"/></svg>