<svg xmlns="http://www.w3.org/2000/svg" viewBox="0 0 75 41"><path d="M2,1.4H9a53.74,53.74,0,0,1,9.49.54,6.5,6.5,0,0,1,4,2.77q1.57,2.22,1.57,7.09,0,4.44-1.11,6t-4.35,1.84a7.41,7.41,0,0,1,3.95,1.95,5.69,5.69,0,0,1,1.26,2.25,35.88,35.88,0,0,1,.25,5.63v10h-9.2V26.83c0-2-.16-3.3-.48-3.79s-1.17-.73-2.53-.73V39.48H2Zm9.9,6.52v8.47a4.43,4.43,0,0,0,2.34-.46c.45-.31.67-1.3.67-3V10.86a3.19,3.19,0,0,0-.65-2.38A3.72,3.72,0,0,0,11.88,7.92Z"/><path d="M47.87,1.4V9H42V39.48H32.08V9H26.23V1.4Z"/><path d="M73.73,1.4,68.05,18.6l6.22,20.88H64L60,23.16V39.48h-9.9V1.4H60V16.2L64.44,1.4Z"/></svg>