<svg xmlns="http://www.w3.org/2000/svg" viewBox="0 0 280 61"><path d="M76.17,1.79A48.78,48.78,0,0,0,70.1,7.33l-3.91,4.24h7.63V24.1H83.87V11.57h7l-5-5.15C83.09,3.55,80.22,1.07,79.5.87A4.79,4.79,0,0,0,76.17,1.79Zm40.45,8c0,2,.26,2.48,1.31,2.48,1.24,0,1.3.46,1.3,7.31v7.31h5.35v-7h6.72v7h5.35V7.4H131.3v6.91H128c-3.27,0-3.33-.06-3.33-2.15,0-3.78-1.05-4.76-4.63-4.76h-3.33C116.62,7.4,116.62,9.81,116.62,9.81Zm27.21-1.17c-2,1.24-4.5,5.94-4.5,8.35,0,2.61,1.76,6,4,8.09,2,1.76,2.61,2,6.4,1.7s4.56-.53,6.26-2.42a10.47,10.47,0,0,0-.33-14.74c-2.15-2-2.8-2.22-6.19-2.22a12.17,12.17,0,0,0-5.68,1.24Zm8.87,5.41a6.7,6.7,0,0,1,1.37,3.07c0,2-2.61,4.83-4.56,4.83a5.39,5.39,0,0,1-4.83-5,4.48,4.48,0,0,1,8-2.87Zm9.46,3.07v9.79h6.72c6.27,0,6.85-.13,8.35-1.76,2-2,2.22-5.35.46-7.18-1-1.11-1.11-1.57-.33-2.55a6.34,6.34,0,0,0,.33-5.61c-1-1.76-3.72-2.41-9.46-2.41h-6.07Zm10.9-4.7c.59,1.83-.39,2.61-3.26,2.61-2.68,0-2.94-.13-2.94-1.76s.26-1.76,2.94-1.76C171.62,11.57,172.86,11.9,173.06,12.42Zm-.33,6.72a1.88,1.88,0,0,1,.65,1.83c-.13,1-1,1.37-3.39,1.57-2.93.19-3.2.06-3.2-1.44a3.8,3.8,0,0,1,.46-2.09C167.9,18.29,171.62,18.43,172.73,19.14ZM187,9c-.32.92-1.82,4.83-3.39,8.94s-2.93,7.7-3.19,8.16.45.91,2.41.91c2.35,0,2.87-.32,3.39-1.76.59-1.63,1.05-1.76,4.63-1.76s4,.13,4.44,1.76S196,27,198.57,27h2.87l-1.83-4.7c-1-2.54-2.67-6.91-3.72-9.72l-1.82-5h-3.2c-2.81-.13-3.46.06-3.92,1.43Zm4.64,5a26.44,26.44,0,0,1,1,3.46c.39,1.63.2,1.76-2,1.76a7,7,0,0,1-2.42-.2,40.06,40.06,0,0,1,2.42-6.78C190.8,12.23,191.26,13.08,191.59,14ZM55.23,23c-6.59,7-6.59,8,.19,15l5,5.15V30.5c0-6.92-.07-12.66-.2-12.66A52.76,52.76,0,0,0,55.23,23Zm41.3,7.24c0,6.92.26,12.66.52,12.66s2.74-2.28,5.35-5.15c6.46-6.92,6.39-7.51-.52-14.68l-5.35-5.55Zm48.41,4.24c-4.63,2.22-6.53,7.7-4.37,12.86,1.56,3.52,3.72,5.28,7.37,5.8,7.83,1.11,13.37-6.06,10.44-13.57C156.36,34.08,150.35,31.87,144.94,34.47Zm7.83,5.62a4.62,4.62,0,1,1-6.66,0,4.73,4.73,0,0,1,6.66,0Zm-36.15-3.85c0,1.95.26,2.48,1.31,2.48,1.24,0,1.3.45,1.3,7.3v7.31h5.35V38.72h6.72V53.33h5.42l-.2-9.59-.26-9.59-9.79-.2-9.91-.19C116.62,33.82,116.62,36.24,116.62,36.24Zm45.54,7.3v9.72H189V33.82h-5.29l-.19,7.11-.2,7.18-2.48.2-2.54.19V33.82h-5.35V48.44h-5.35V33.82h-5.35Zm29.43-7.3v2.48h6.72V53.33h4.63V38.72h6.72V33.89H191.59Zm20.81,6.59c-1.89,5-3.46,9.39-3.46,9.72s1.11.71,2.55.71c2.21,0,2.61-.32,3.26-2.08.72-2,1-2.09,4.57-2.09s3.84.06,4.43,2.09c.65,1.76,1.05,2.08,3.33,2.08,1.37,0,2.61-.19,2.61-.45s-1.63-4.63-3.46-9.72l-3.52-9.27h-6.79l-3.52,9Zm8.15-1,1,3.13h-2.35c-1.24,0-2.28-.33-2.28-.59,0-.85,1.89-5.61,2.28-5.61C219.45,38.72,220,40.09,220.55,41.85Zm-146.73,1v6.26h-7.7l5.42,5.55c4.11,4.24,5.87,5.54,7.31,5.54s3.19-1.3,7.3-5.54l5.42-5.55h-7.7V36.63H73.82Z" style="fill:#ef4035"/></svg>