<svg xmlns="http://www.w3.org/2000/svg" viewBox="0 0 280 61"><path d="M68.86,34.85l-19.43-4.4a10.76,10.76,0,1,1,8.1-1.39h0a.26.26,0,0,0-.06.37.33.33,0,0,0,.15.11l8.65,1.95a.52.52,0,0,0,.54-.2A18.8,18.8,0,0,0,52.92,1.19,21.49,21.49,0,0,0,34.19,35L51.47,59.68a.4.4,0,0,0,.57.08l.09-.08,17-24.21a.39.39,0,0,0-.11-.56.31.31,0,0,0-.13-.06" style="fill:#f9bc24"/><path d="M85.49,12.72a.44.44,0,0,1,.42.2l5.76,9.84H92l4.9-9.7a.57.57,0,0,1,.58-.34H101a.37.37,0,0,1,.35.55l-10.15,18a.61.61,0,0,1-.59.31H87.11c-.38,0-.41-.24-.27-.52l2.72-4.66L81.42,13.17c-.14-.25,0-.45.21-.45h3.86m21.87,0a.43.43,0,0,1,.48.48v7.38L115.61,13a1.42,1.42,0,0,1,.9-.27h4.21c.31,0,.41.27.17.51L112.64,21l8.77,10a.29.29,0,0,1-.21.52h-4.14a1.08,1.08,0,0,1-.87-.35l-6.56-7.75-1.79,1.66V31a.44.44,0,0,1-.48.49h-3a.44.44,0,0,1-.48-.49V13.2a.43.43,0,0,1,.48-.48h3m25.49,10a3,3,0,0,0,3.31-3.15,3,3,0,0,0-3.31-3.07h-5v6.22Zm0-10c4.18,0,7.32,3,7.32,6.86,0,4-3.14,6.94-7.32,6.94h-5V31a.45.45,0,0,1-.49.49h-3a.45.45,0,0,1-.49-.49V13.2a.44.44,0,0,1,.49-.48h8.52m26.18,0a.44.44,0,0,1,.49.48V31a.45.45,0,0,1-.49.49h-3a.44.44,0,0,1-.48-.49V16.48h-8.35V31a.44.44,0,0,1-.48.49h-3a.44.44,0,0,1-.48-.49V13.2a.43.43,0,0,1,.48-.48H159m8.09,9.42a5.85,5.85,0,1,0,11.7,0,5.85,5.85,0,1,0-11.7,0m5.87-9.7a9.68,9.68,0,1,1-9.91,9.7,9.71,9.71,0,0,1,9.91-9.7m23.27,15.33V13.2a.43.43,0,0,1,.48-.48h3a.43.43,0,0,1,.48.48V27.77h5.91V13.2a.43.43,0,0,1,.48-.48h3a.43.43,0,0,1,.48.48V31a.44.44,0,0,1-.48.49H186.9a.48.48,0,0,1-.48-.49V13.2a.43.43,0,0,1,.48-.48h3a.44.44,0,0,1,.49.48V27.77h5.9m33-15a.43.43,0,0,1,.48.48V16a.43.43,0,0,1-.48.48h-6V31a.44.44,0,0,1-.48.49h-3a.44.44,0,0,1-.48-.49V16.51h-6a.43.43,0,0,1-.48-.48V13.2a.43.43,0,0,1,.48-.48h16M236,24.18h6.56l-3-7.74h-.38L236,24.18ZM244,27.8h-9.39l-1.31,3.31a.59.59,0,0,1-.59.42h-3.42c-.34,0-.44-.18-.34-.49l8.14-18a.44.44,0,0,1,.45-.27h3.94a.44.44,0,0,1,.45.27l7.76,18a.4.4,0,0,1-.38.56H246a.75.75,0,0,1-.72-.49L244,27.8" style="fill:#2d2f2d"/><path d="M84.08,47.65v-8h5.3v.93H85.14v7.12H84.08m7.91-4c0,2,1.09,3.32,2.8,3.32s2.79-1.31,2.79-3.32-1.1-3.28-2.81-3.28C92.87,40.33,92,41.9,92,43.61Zm6.65,0c0,2.36-1.3,4.29-3.86,4.29s-3.86-2-3.86-4.31c0-2.52,1.51-4.13,3.85-4.13,2.5,0,3.87,1.75,3.87,4.15M107,47.65h-1.07V40.53h-3l-.16,4.53c-.06,1.62-.65,2.76-1.87,2.76a2.45,2.45,0,0,1-.77-.15v-.91a1.38,1.38,0,0,0,.58.11c.57,0,1-.31,1-2.36l.15-4.91H107v8m3.57-4c0,2,1.1,3.32,2.81,3.32s2.79-1.31,2.79-3.32-1.1-3.28-2.81-3.28C111.44,40.33,110.55,41.9,110.55,43.61Zm6.66,0c0,2.36-1.3,4.29-3.86,4.29s-3.86-2-3.86-4.31c0-2.52,1.51-4.13,3.85-4.13,2.5,0,3.87,1.75,3.87,4.15m3.55,3.2h2.13c1.07,0,2.13-.07,2.13-1.48s-1.24-1.39-2.31-1.39h-1.95Zm0-3.71h1.91c.91,0,2-.07,2-1.28s-.94-1.27-1.9-1.27h-2Zm2.4-3.45c1.34,0,2.57.53,2.57,2a1.8,1.8,0,0,1-1.19,1.73,1.93,1.93,0,0,1,1.55,2c0,1.86-1.52,2.27-3,2.27h-3.32v-8h3.44m11.86,8H134V43.89H129.7v3.76h-1.07v-8h1.07V43H134V39.6H135v8m5.95-7-1.4,3.72h2.77Zm3.77,7h-1.19l-.9-2.46h-3.38l-.92,2.46h-1.13l3.17-8h1.2l3.15,8m13.12,0H156.8V40.53h-4.26v7.12h-1.06v-8h6.38v8m3.59-4c0,2,1.1,3.32,2.81,3.32S167,45.62,167,43.61s-1.1-3.28-2.81-3.28C162.33,40.33,161.45,41.9,161.45,43.61Zm6.66,0c0,2.36-1.31,4.29-3.86,4.29s-3.87-2-3.87-4.31c0-2.52,1.51-4.13,3.85-4.13,2.51,0,3.88,1.75,3.88,4.15m2.5-4h1.07v7.13h3.57V39.6h1.07v7.13h3.58V39.6H181v8H170.61v-8m19.09.93H187v7.12h-1.07V40.53h-2.7V39.6h6.47v.93m4.13.09-1.4,3.72h2.77l-1.37-3.72Zm3.77,7h-1.19l-.9-2.46h-3.38l-.92,2.46h-1.13l3.17-8h1.2l3.15,8m9.88-4.81L211,47.65h-1.36l-2.92-4.09-1.34,1.27v2.82h-1.07v-8h1.07v4l4.09-4h1.39l-3.4,3.23m6.85.63h2c1,0,1.82-.29,1.82-1.47s-.92-1.47-2-1.47h-1.9Zm2.25-3.86c1.54,0,2.68.64,2.68,2.32s-1.17,2.43-2.75,2.43h-2.18v3.3h-1.07v-8h3.32m7.39,1-1.39,3.72h2.76L224,40.62Zm3.78,7h-1.19l-.9-2.46h-3.38l-.92,2.46h-1.13l3.17-8h1.2l3.15,8.06m4.33-8.75h-1V37.77h1ZM231,47.65H230v-8H231Zm-1.08-8.74h-1V37.77h1v1.14m10.42,8.74h-1.07V43.89H235v3.76H234v-8H235V43h4.26V39.6h1.07v8m2.93-8h1.06v6.82h0l4-6.82h1.34v8h-1.06V40.81h0l-4,6.84h-1.33v-8" style="fill:#627271"/></svg>