<svg width="0" height="0"><symbol xmlns="http://www.w3.org/2000/svg" id="circle-minus" viewBox="0 0 512 512"><path d="M256 32a224 224 0 1 1 0 448 224 224 0 1 1 0-448zm0 480a256 256 0 1 0 0-512 256 256 0 1 0 0 512zm-96-272c-8.8 0-16 7.2-16 16s7.2 16 16 16h192c8.8 0 16-7.2 16-16s-7.2-16-16-16H160z"/></symbol><symbol xmlns="http://www.w3.org/2000/svg" id="circle-plus" viewBox="0 0 512 512"><path d="M256 32a224 224 0 1 1 0 448 224 224 0 1 1 0-448zm0 480a256 256 0 1 0 0-512 256 256 0 1 0 0 512zm-16-160c0 8.8 7.2 16 16 16s16-7.2 16-16v-80h80c8.8 0 16-7.2 16-16s-7.2-16-16-16h-80v-80c0-8.8-7.2-16-16-16s-16 7.2-16 16v80h-80c-8.8 0-16 7.2-16 16s7.2 16 16 16h80v80z"/></symbol><symbol xmlns="http://www.w3.org/2000/svg" id="edit" viewBox="0 0 512 512"><path d="m454.6 45.3 12.1 12.1c12.5 12.5 12.5 32.8 0 45.3L440 129.4 382.6 72l26.7-26.7c12.5-12.5 32.8-12.5 45.3 0zM189 265.6l171-171 57.4 57.4-171 171c-4.2 4.2-9.6 7.2-15.4 8.6l-65.6 15.1 15.1-65.7c1.3-5.8 4.3-11.2 8.6-15.4zm197.7-243L166.4 243c-8.5 8.5-14.4 19.2-17.1 30.9l-20.9 90.6c-1.2 5.4.4 11 4.3 14.9s9.5 5.5 14.9 4.3l90.6-20.9c11.7-2.7 22.4-8.6 30.9-17.1l220.3-220.4c25-25 25-65.5 0-90.5l-12.1-12.2c-25-25-65.5-25-90.5 0zM80 64C35.8 64 0 99.8 0 144v288c0 44.2 35.8 80 80 80h288c44.2 0 80-35.8 80-80V304c0-8.8-7.2-16-16-16s-16 7.2-16 16v128c0 26.5-21.5 48-48 48H80c-26.5 0-48-21.5-48-48V144c0-26.5 21.5-48 48-48h128c8.8 0 16-7.2 16-16s-7.2-16-16-16H80z"/></symbol><symbol xmlns="http://www.w3.org/2000/svg" id="filter" viewBox="0 0 512 512"><path d="M463.952 0H48.057C5.419 0-16.094 51.731 14.116 81.941L176 243.882V416c0 15.108 7.113 29.335 19.2 40l64 47.066c31.273 21.855 76.8 1.538 76.8-38.4V243.882L497.893 81.941C528.042 51.792 506.675 0 463.952 0zM288 224v240l-64-48V224L48 48h416L288 224z"/></symbol><symbol xmlns="http://www.w3.org/2000/svg" id="search" viewBox="0 0 18 18"><path d="M12.5 11.5c1-1.2 1.6-2.8 1.6-4.4C14.1 3.2 10.9 0 7 0S0 3.2 0 7.1s3.2 7.1 7.1 7.1c1.7 0 3.2-.6 4.4-1.6l5.3 5.3c.3.3.7.3 1 0s.3-.7 0-1l-5.3-5.4zm-5.4 1.1C4 12.6 1.5 10.1 1.5 7S4 1.4 7.1 1.4s5.6 2.5 5.6 5.6-2.6 5.6-5.6 5.6z"/></symbol><symbol xmlns="http://www.w3.org/2000/svg" id="share" viewBox="0 0 512 512"><path d="M352 320c-25.6 0-48.9 10-66.1 26.4l-98.3-61.5c5.9-18.8 5.9-39.1 0-57.8l98.3-61.5C303.1 182 326.4 192 352 192c53 0 96-43 96-96S405 0 352 0s-96 43-96 96c0 9.8 1.5 19.6 4.4 28.9l-98.3 61.5C144.9 170 121.6 160 96 160c-53 0-96 43-96 96s43 96 96 96c25.6 0 48.9-10 66.1-26.4l98.3 61.5c-2.9 9.4-4.4 19.1-4.4 28.9 0 53 43 96 96 96s96-43 96-96-43-96-96-96zm0-272c26.5 0 48 21.5 48 48s-21.5 48-48 48-48-21.5-48-48 21.5-48 48-48zM96 304c-26.5 0-48-21.5-48-48s21.5-48 48-48 48 21.5 48 48-21.5 48-48 48zm256 160c-26.5 0-48-21.5-48-48s21.5-48 48-48 48 21.5 48 48-21.5 48-48 48z"/></symbol><symbol xmlns="http://www.w3.org/2000/svg" id="sort" viewBox="0 0 24 24"><path stroke="currentColor" stroke-linecap="round" stroke-width="1.3" d="M16 17.2V6m0 0c-.178 0-2.8 3.5-2.8 3.5M16 6c.178 0 2.8 3.5 2.8 3.5M8.8 6v11.2m0 0c.178 0 2.8-3.5 2.8-3.5m-2.8 3.5c-.178 0-2.8-3.5-2.8-3.5"/></symbol><symbol xmlns="http://www.w3.org/2000/svg" id="trash" viewBox="0 0 20 20"><path d="M18 3.27h-3.2L13.5 1.1a1.84 1.84 0 0 0-1.57-.89H8.07a1.84 1.84 0 0 0-1.57.89L5.2 3.27H2.05a.61.61 0 0 0-.62.61v.61a.61.61 0 0 0 .62.61h.61l.81 13a1.83 1.83 0 0 0 1.83 1.69h9.4a1.83 1.83 0 0 0 1.83-1.72l.81-13H18a.61.61 0 0 0 .62-.61v-.58a.61.61 0 0 0-.62-.61ZM8.07 2.05h3.86l.73 1.22H7.34ZM14.7 18H5.3L4.5 5.1h11Z"/></symbol><symbol xmlns="http://www.w3.org/2000/svg" id="warning" viewBox="0 0 512 512"><path d="M34.5 420.4c-1.6 2.8-2.5 6-2.5 9.3 0 10.2 8.2 18.4 18.4 18.4h411.2c10.2 0 18.4-8.2 18.4-18.4 0-3.3-.9-6.4-2.5-9.3l-201-344.6C272.2 68.5 264.4 64 256 64s-16.2 4.5-20.5 11.8l-201 344.6zM6.9 404.2l201-344.6C217.9 42.5 236.2 32 256 32s38.1 10.5 48.1 27.6l201 344.6c4.5 7.7 6.9 16.5 6.9 25.4 0 27.8-22.6 50.4-50.4 50.4H50.4C22.6 480 0 457.4 0 429.6c0-8.9 2.4-17.7 6.9-25.4zM256 160c8.8 0 16 7.2 16 16v128c0 8.8-7.2 16-16 16s-16-7.2-16-16V176c0-8.8 7.2-16 16-16zm-24 224a24 24 0 1 1 48 0 24 24 0 1 1-48 0z"/></symbol></svg>