<svg width="0" height="0"><symbol xmlns="http://www.w3.org/2000/svg" id="arrow-down-up" fill="none" stroke="currentColor" stroke-linecap="round" stroke-linejoin="round" stroke-width="2" viewBox="0 0 24 24"><path d="m3 16 4 4 4-4m-4 4V4m14 4-4-4-4 4m4-4v16"/></symbol><symbol xmlns="http://www.w3.org/2000/svg" id="circle-minus" fill="none" stroke="currentColor" stroke-linecap="round" stroke-linejoin="round" stroke-width="1.5" viewBox="0 0 24 24"><circle cx="12" cy="12" r="10"/><path d="M8 12h8"/></symbol><symbol xmlns="http://www.w3.org/2000/svg" id="circle-plus" fill="none" stroke="currentColor" stroke-linecap="round" stroke-linejoin="round" stroke-width="1.5" viewBox="0 0 24 24"><circle cx="12" cy="12" r="10"/><path d="M8 12h8m-4-4v8"/></symbol><symbol xmlns="http://www.w3.org/2000/svg" id="copy-check" fill="none" stroke="currentColor" stroke-linecap="round" stroke-linejoin="round" stroke-width="2" viewBox="0 0 24 24"><path d="m12 15 2 2 4-4M4 16c-1.1 0-2-.9-2-2V4c0-1.1.9-2 2-2h10c1.1 0 2 .9 2 2"/><rect width="14" height="14" x="8" y="8" rx="2" ry="2"/></symbol><symbol xmlns="http://www.w3.org/2000/svg" id="copy" fill="none" stroke="currentColor" stroke-linecap="round" stroke-linejoin="round" stroke-width="2" viewBox="0 0 24 24"><rect width="14" height="14" x="8" y="8" rx="2" ry="2"/><path d="M4 16c-1.1 0-2-.9-2-2V4c0-1.1.9-2 2-2h10c1.1 0 2 .9 2 2"/></symbol><symbol xmlns="http://www.w3.org/2000/svg" id="edit" viewBox="0 0 512 512"><path d="m454.6 45.3 12.1 12.1c12.5 12.5 12.5 32.8 0 45.3L440 129.4 382.6 72l26.7-26.7c12.5-12.5 32.8-12.5 45.3 0M189 265.6l171-171 57.4 57.4-171 171c-4.2 4.2-9.6 7.2-15.4 8.6l-65.6 15.1 15.1-65.7c1.3-5.8 4.3-11.2 8.6-15.4zm197.7-243L166.4 243c-8.5 8.5-14.4 19.2-17.1 30.9l-20.9 90.6c-1.2 5.4.4 11 4.3 14.9s9.5 5.5 14.9 4.3l90.6-20.9c11.7-2.7 22.4-8.6 30.9-17.1l220.3-220.4c25-25 25-65.5 0-90.5l-12.1-12.2c-25-25-65.5-25-90.5 0zM80 64C35.8 64 0 99.8 0 144v288c0 44.2 35.8 80 80 80h288c44.2 0 80-35.8 80-80V304c0-8.8-7.2-16-16-16s-16 7.2-16 16v128c0 26.5-21.5 48-48 48H80c-26.5 0-48-21.5-48-48V144c0-26.5 21.5-48 48-48h128c8.8 0 16-7.2 16-16s-7.2-16-16-16z"/></symbol><symbol xmlns="http://www.w3.org/2000/svg" id="funnel" fill="none" stroke="currentColor" stroke-linecap="round" stroke-linejoin="round" stroke-width="2" viewBox="0 0 24 24"><path d="M10 20a1 1 0 0 0 .553.895l2 1A1 1 0 0 0 14 21v-7a2 2 0 0 1 .517-1.341L21.74 4.67A1 1 0 0 0 21 3H3a1 1 0 0 0-.742 1.67l7.225 7.989A2 2 0 0 1 10 14z"/></symbol><symbol xmlns="http://www.w3.org/2000/svg" id="info" fill="none" stroke="currentColor" stroke-linecap="round" stroke-linejoin="round" stroke-width="2" viewBox="0 0 24 24"><circle cx="12" cy="12" r="10"/><path d="M12 16v-4m0-4h.01"/></symbol><symbol xmlns="http://www.w3.org/2000/svg" id="search" viewBox="0 0 18 18"><path d="M12.5 11.5c1-1.2 1.6-2.8 1.6-4.4C14.1 3.2 10.9 0 7 0S0 3.2 0 7.1s3.2 7.1 7.1 7.1c1.7 0 3.2-.6 4.4-1.6l5.3 5.3c.3.3.7.3 1 0s.3-.7 0-1zm-5.4 1.1C4 12.6 1.5 10.1 1.5 7S4 1.4 7.1 1.4s5.6 2.5 5.6 5.6-2.6 5.6-5.6 5.6"/></symbol><symbol xmlns="http://www.w3.org/2000/svg" id="share" viewBox="0 0 512 512"><path d="M352 320c-25.6 0-48.9 10-66.1 26.4l-98.3-61.5c5.9-18.8 5.9-39.1 0-57.8l98.3-61.5C303.1 182 326.4 192 352 192c53 0 96-43 96-96S405 0 352 0s-96 43-96 96c0 9.8 1.5 19.6 4.4 28.9l-98.3 61.5C144.9 170 121.6 160 96 160c-53 0-96 43-96 96s43 96 96 96c25.6 0 48.9-10 66.1-26.4l98.3 61.5c-2.9 9.4-4.4 19.1-4.4 28.9 0 53 43 96 96 96s96-43 96-96-43-96-96-96m0-272c26.5 0 48 21.5 48 48s-21.5 48-48 48-48-21.5-48-48 21.5-48 48-48M96 304c-26.5 0-48-21.5-48-48s21.5-48 48-48 48 21.5 48 48-21.5 48-48 48m256 160c-26.5 0-48-21.5-48-48s21.5-48 48-48 48 21.5 48 48-21.5 48-48 48"/></symbol><symbol xmlns="http://www.w3.org/2000/svg" id="trash" fill="none" stroke="currentColor" stroke-linecap="round" stroke-linejoin="round" stroke-width="1.5" viewBox="0 0 24 24"><path d="M19 6v14a2 2 0 0 1-2 2H7a2 2 0 0 1-2-2V6M3 6h18M8 6V4a2 2 0 0 1 2-2h4a2 2 0 0 1 2 2v2"/></symbol><symbol xmlns="http://www.w3.org/2000/svg" id="warning" viewBox="0 0 512 512"><path d="M34.5 420.4c-1.6 2.8-2.5 6-2.5 9.3 0 10.2 8.2 18.4 18.4 18.4h411.2c10.2 0 18.4-8.2 18.4-18.4 0-3.3-.9-6.4-2.5-9.3l-201-344.6C272.2 68.5 264.4 64 256 64s-16.2 4.5-20.5 11.8zM6.9 404.2l201-344.6C217.9 42.5 236.2 32 256 32s38.1 10.5 48.1 27.6l201 344.6c4.5 7.7 6.9 16.5 6.9 25.4 0 27.8-22.6 50.4-50.4 50.4H50.4C22.6 480 0 457.4 0 429.6c0-8.9 2.4-17.7 6.9-25.4M256 160c8.8 0 16 7.2 16 16v128c0 8.8-7.2 16-16 16s-16-7.2-16-16V176c0-8.8 7.2-16 16-16m-24 224a24 24 0 1 1 48 0 24 24 0 1 1-48 0"/></symbol></svg>