<svg width="0" height="0"><symbol xmlns="http://www.w3.org/2000/svg" id="box-taped" viewBox="0 0 512 512"><path d="M264 32H105.6c-25.3 0-48.2 14.9-58.5 38L5.5 163.6c-3.6 8.2-5.5 17-5.5 26V416c0 35.3 28.7 64 64 64h320c35.3 0 64-28.7 64-64V189.6c0-9-1.9-17.8-5.5-26L400.9 70c-10.3-23.1-33.2-38-58.5-38H264zm24 128-18-96h72.4c12.6 0 24.1 7.4 29.2 19l34.2 77H288zm-32.6 0h-62.8l18-96h26.9l18 96zm.6 32v64h-64v-64h64zm-96 0v64c0 17.7 14.3 32 32 32h64c17.7 0 32-14.3 32-32v-64h128v224c0 17.7-14.3 32-32 32H64c-17.7 0-32-14.3-32-32V192h128zm0-32H42.1l34.2-77c5.1-11.6 16.6-19 29.2-19H178l-18 96z"/></symbol><symbol xmlns="http://www.w3.org/2000/svg" id="letter" viewBox="0 0 576 576"><path d="M448 80a48 48 0 1 1 96 0 48 48 0 1 1-96 0zm128 0a80 80 0 1 0-160 0 80 80 0 1 0 160 0zm-64 304V190.9c-5.2.7-10.6 1.1-16 1.1-13.8 0-27-2.5-39.2-7.1L284.4 311.3c-16.9 12.4-39.9 12.4-56.8 0L32 167.9V128c0-17.7 14.3-32 32-32h321.1c-.7-5.2-1.1-10.6-1.1-16s.4-10.8 1.1-16H64C28.7 64 0 92.7 0 128v256c0 35.3 28.7 64 64 64h384c35.3 0 64-28.7 64-64zM32 207.6l176.7 129.5c28.2 20.6 66.5 20.6 94.6 0L480 207.6V384c0 17.7-14.3 32-32 32H64c-17.7 0-32-14.3-32-32V207.6z"/></symbol></svg>