<svg width="0" height="0"><symbol xmlns="http://www.w3.org/2000/svg" id="circle-x" fill="none" stroke="currentColor" stroke-linecap="round" stroke-linejoin="round" stroke-width="2" viewBox="0 0 24 24"><circle cx="12" cy="12" r="10"/><path d="m15 9-6 6m0-6 6 6"/></symbol><symbol xmlns="http://www.w3.org/2000/svg" id="gift" fill="none" stroke="currentColor" stroke-linecap="round" stroke-linejoin="round" stroke-width="2" viewBox="0 0 24 24"><path d="M12 7v14m8-10v8a2 2 0 0 1-2 2H6a2 2 0 0 1-2-2v-8m3.5-4a1 1 0 0 1 0-5A4.8 8 0 0 1 12 7a4.8 8 0 0 1 4.5-5 1 1 0 0 1 0 5"/><rect width="18" height="4" x="3" y="7" rx="1"/></symbol><symbol xmlns="http://www.w3.org/2000/svg" id="package-check" fill="none" stroke="currentColor" stroke-linecap="round" stroke-linejoin="round" stroke-width="2" viewBox="0 0 24 24"><path d="m16 16 2 2 4-4"/><path d="M21 10V8a2 2 0 0 0-1-1.73l-7-4a2 2 0 0 0-2 0l-7 4A2 2 0 0 0 3 8v8a2 2 0 0 0 1 1.73l7 4a2 2 0 0 0 2 0l2-1.14M7.5 4.27l9 5.15"/><path d="M3.29 7 12 12l8.71-5M12 22V12"/></symbol><symbol xmlns="http://www.w3.org/2000/svg" id="package-x" fill="none" stroke="currentColor" stroke-linecap="round" stroke-linejoin="round" stroke-width="2" viewBox="0 0 24 24"><path d="M21 10V8a2 2 0 0 0-1-1.73l-7-4a2 2 0 0 0-2 0l-7 4A2 2 0 0 0 3 8v8a2 2 0 0 0 1 1.73l7 4a2 2 0 0 0 2 0l2-1.14M7.5 4.27l9 5.15"/><path d="M3.29 7 12 12l8.71-5M12 22V12m5 1 5 5m-5 0 5-5"/></symbol><symbol xmlns="http://www.w3.org/2000/svg" id="timer" fill="none" stroke="currentColor" stroke-linecap="round" stroke-linejoin="round" stroke-width="2" viewBox="0 0 24 24"><path d="M10 2h4m-2 12 3-3"/><circle cx="12" cy="14" r="8"/></symbol><symbol xmlns="http://www.w3.org/2000/svg" id="truck" fill="none" stroke="currentColor" stroke-linecap="round" stroke-linejoin="round" stroke-width="2" viewBox="0 0 24 24"><path d="M14 18V6a2 2 0 0 0-2-2H4a2 2 0 0 0-2 2v11a1 1 0 0 0 1 1h2m10 0H9m10 0h2a1 1 0 0 0 1-1v-3.65a1 1 0 0 0-.22-.624l-3.48-4.35A1 1 0 0 0 17.52 8H14"/><circle cx="17" cy="18" r="2"/><circle cx="7" cy="18" r="2"/></symbol></svg>