<svg width="0" height="0"><symbol xmlns="http://www.w3.org/2000/svg" id="package-check" fill="none" stroke="currentColor" stroke-linecap="round" stroke-linejoin="round" stroke-width="2" viewBox="0 0 24 24"><path d="m16 16 2 2 4-4"/><path d="M21 10V8a2 2 0 0 0-1-1.73l-7-4a2 2 0 0 0-2 0l-7 4A2 2 0 0 0 3 8v8a2 2 0 0 0 1 1.73l7 4a2 2 0 0 0 2 0l2-1.14M7.5 4.27l9 5.15"/><path d="M3.29 7 12 12l8.71-5M12 22V12"/></symbol><symbol xmlns="http://www.w3.org/2000/svg" id="package-x" fill="none" stroke="currentColor" stroke-linecap="round" stroke-linejoin="round" stroke-width="2" viewBox="0 0 24 24"><path d="M21 10V8a2 2 0 0 0-1-1.73l-7-4a2 2 0 0 0-2 0l-7 4A2 2 0 0 0 3 8v8a2 2 0 0 0 1 1.73l7 4a2 2 0 0 0 2 0l2-1.14M7.5 4.27l9 5.15"/><path d="M3.29 7 12 12l8.71-5M12 22V12m5 1 5 5m-5 0 5-5"/></symbol><symbol xmlns="http://www.w3.org/2000/svg" id="timer" fill="none" stroke="currentColor" stroke-linecap="round" stroke-linejoin="round" stroke-width="2" viewBox="0 0 24 24"><path d="M10 2h4m-2 12 3-3"/><circle cx="12" cy="14" r="8"/></symbol></svg>