<svg width="0" height="0"><symbol xmlns="http://www.w3.org/2000/svg" id="arrow" viewBox="0 0 24 24"><path d="m12 8-6 6 1.41 1.41L12 10.83l4.59 4.58L18 14z"/></symbol><symbol xmlns="http://www.w3.org/2000/svg" id="box-taped" viewBox="0 0 512 512"><path d="M264 32H105.6c-25.3 0-48.2 14.9-58.5 38L5.5 163.6c-3.6 8.2-5.5 17-5.5 26V416c0 35.3 28.7 64 64 64h320c35.3 0 64-28.7 64-64V189.6c0-9-1.9-17.8-5.5-26L400.9 70c-10.3-23.1-33.2-38-58.5-38H264zm24 128-18-96h72.4c12.6 0 24.1 7.4 29.2 19l34.2 77H288zm-32.6 0h-62.8l18-96h26.9l18 96zm.6 32v64h-64v-64h64zm-96 0v64c0 17.7 14.3 32 32 32h64c17.7 0 32-14.3 32-32v-64h128v224c0 17.7-14.3 32-32 32H64c-17.7 0-32-14.3-32-32V192h128zm0-32H42.1l34.2-77c5.1-11.6 16.6-19 29.2-19H178l-18 96z"/></symbol><symbol xmlns="http://www.w3.org/2000/svg" id="calendar" viewBox="0 0 448 512"><path d="M112 0c8.8 0 16 7.2 16 16v48h192V16c0-8.8 7.2-16 16-16s16 7.2 16 16v48h32c35.3 0 64 28.7 64 64v320c0 35.3-28.7 64-64 64H64c-35.3 0-64-28.7-64-64V128c0-35.3 28.7-64 64-64h32V16c0-8.8 7.2-16 16-16zm304 192H32v256c0 17.7 14.3 32 32 32h320c17.7 0 32-14.3 32-32V192zm-32-96H64c-17.7 0-32 14.3-32 32v32h384v-32c0-17.7-14.3-32-32-32zM96 368c0-8.8 7.2-16 16-16h128c8.8 0 16 7.2 16 16s-7.2 16-16 16H112c-8.8 0-16-7.2-16-16zm16-112h224c8.8 0 16 7.2 16 16s-7.2 16-16 16H112c-8.8 0-16-7.2-16-16s7.2-16 16-16z"/></symbol><symbol xmlns="http://www.w3.org/2000/svg" id="menu" viewBox="0 0 448 512"><path d="M0 80c0-8.8 7.2-16 16-16h416c8.8 0 16 7.2 16 16s-7.2 16-16 16H16C7.2 96 0 88.8 0 80zm0 160c0-8.8 7.2-16 16-16h288c8.8 0 16 7.2 16 16s-7.2 16-16 16H16c-8.8 0-16-7.2-16-16zm192 160c0 8.8-7.2 16-16 16H16c-8.8 0-16-7.2-16-16s7.2-16 16-16h160c8.8 0 16 7.2 16 16z"/></symbol><symbol xmlns="http://www.w3.org/2000/svg" id="signal" viewBox="0 0 640 512"><path d="M592 16c0-8.8-7.2-16-16-16s-16 7.2-16 16v480c0 8.8 7.2 16 16 16s16-7.2 16-16V16zM448 96c-8.8 0-16 7.2-16 16v384c0 8.8 7.2 16 16 16s16-7.2 16-16V112c0-8.8-7.2-16-16-16zM336 208c0-8.8-7.2-16-16-16s-16 7.2-16 16v288c0 8.8 7.2 16 16 16s16-7.2 16-16V208zm-144 80c-8.8 0-16 7.2-16 16v192c0 8.8 7.2 16 16 16s16-7.2 16-16V304c0-8.8-7.2-16-16-16zM64 384c-8.8 0-16 7.2-16 16v96c0 8.8 7.2 16 16 16s16-7.2 16-16v-96c0-8.8-7.2-16-16-16z"/></symbol><symbol xmlns="http://www.w3.org/2000/svg" id="tags" viewBox="0 0 512 512"><path d="M204.1 32c12.7 0 24.9 5.1 33.9 14.1l172.7 172.6c25 25 25 65.5 0 90.5L277.3 442.7c-25 25-65.5 25-90.5 0L14.1 270.1c-9-9-14.1-21.2-14.1-33.9V80c0-26.5 21.5-48 48-48h156.1zM36.7 247.4l172.7 172.7c12.5 12.5 32.8 12.5 45.3 0l133.4-133.5c12.5-12.5 12.5-32.8 0-45.3L215.4 68.7c-3-3-7.1-4.7-11.3-4.7H48c-8.8 0-16 7.2-16 16v156.1c0 4.2 1.7 8.3 4.7 11.3zM308.4 36.9c6.1-6.4 16.2-6.6 22.6-.5l141.3 135c52.8 50.4 52.8 134.7 0 185.1l-124.6 119c-6.4 6.1-16.5 5.9-22.6-.5s-5.9-16.5.5-22.6l124.6-119c39.6-37.8 39.6-101 0-138.8l-141.3-135c-6.4-6.1-6.6-16.2-.5-22.6zM104 112a24 24 0 1 1 0 48 24 24 0 1 1 0-48z"/></symbol><symbol xmlns="http://www.w3.org/2000/svg" id="user" viewBox="0 0 512 512"><path d="M320 128a96 96 0 1 0-192 0 96 96 0 1 0 192 0zm-224 0a128 128 0 1 1 256 0 128 128 0 1 1-256 0zM32 480h384c-1.2-79.7-66.2-144-146.3-144h-91.4c-80 0-145 64.3-146.3 144zm-32 2.3C0 383.8 79.8 304 178.3 304h91.4c98.5 0 178.3 79.8 178.3 178.3 0 16.4-13.3 29.7-29.7 29.7H29.7C13.3 512 0 498.7 0 482.3z"/></symbol><symbol xmlns="http://www.w3.org/2000/svg" id="warehouse" viewBox="0 0 640 512"><path d="M326.2 36c-4-1.7-8.4-1.7-12.4 0L51.6 146.4C39.7 151.4 32 163 32 175.9V496c0 8.8-7.2 16-16 16s-16-7.2-16-16V175.9c0-25.8 15.4-49 39.2-59L301.4 6.5c11.9-5 25.3-5 37.3 0l262.1 110.4c23.7 10 39.2 33.2 39.2 59V496c0 8.8-7.2 16-16 16s-16-7.2-16-16V175.9c0-12.9-7.7-24.5-19.6-29.5L326.2 36zM96 224c0-17.7 14.3-32 32-32h384c17.7 0 32 14.3 32 32v272c0 8.8-7.2 16-16 16H112c-8.8 0-16-7.2-16-16V224zm32 256h384v-64H128v64zm384-160H128v64h384v-64zm-384-32h384v-64H128v64z"/></symbol></svg>