<svg version="1.0" viewBox="0 0 775 395" xmlns="http://www.w3.org/2000/svg"><path d="M265.9 2.7c-1.5.4-1.5 1-.2 7.1 1.5 7.1 1.2 9.2-1.1 9.2-.8 0-3.8.5-6.6 1.1-4 .8-5 1.5-5 3.1 0 1.8.4 1.9 5.3 1.2 10.4-1.5 10-1.8 11.4 6 .7 3.8 1.4 7.1 1.6 7.3.2.2 1.2 0 2.2-.3 1.3-.6 1.6-1.4 1.1-4.3-.3-2-.9-5.3-1.2-7.3-.7-4.2-.9-4.1 7.9-5.8 4.7-.9 5.7-1.5 5.7-3.2 0-1.8-.4-2-3.7-1.4-2.1.3-5.6.9-7.8 1.2l-4.1.6-1.3-7.6c-.7-4.2-1.5-7.5-1.9-7.5-.4.1-1.4.3-2.3.6zM440 50c0 9.9.2 18 .5 18 1 0 30.7-15.1 30.4-15.4-.2-.2-7.3-4.9-15.6-10.5L440 32v18zm14.5-5c5.8 3.9 10.5 7.3 10.5 7.5 0 .5-21.5 11.5-22.5 11.5-.3 0-.5-5.9-.5-13 0-8.3.4-13 1-13s5.8 3.2 11.5 7zm40.5-4.9c-3.9 1.5-6 4.9-6 9.7 0 9 9.9 13.5 16.8 7.7 5.3-4.4 4.7-13-1.1-16.5-3.5-2.2-5.9-2.4-9.7-.9zm9 4.9c5.4 5.4-1.1 14.1-7.9 10.5-4.6-2.3-5.3-5.7-2-9.9 2.5-3.2 7-3.5 9.9-.6zM330.9 57.9c-5.7 5.7-3.1 15.8 4.5 17.7 3.6.9 7.3-.3 10.2-3.1 1.8-1.9 2.4-3.5 2.4-7 0-6.4-3.9-10.5-10-10.5-3.3 0-4.8.6-7.1 2.9zM343 61c4.1 4.1 1 11-5 11-3.5 0-7-3.4-7-6.7 0-3.2 3.4-6.3 7-6.3 1.7 0 3.9.9 5 2zm35 33.9c-24.4 3.5-45.1 18.4-56.1 40.6-3.6 7.3-5.6 14.6-7.5 27.7l-.5 3.8h-9.7c-11.5 0-16.7 1.2-18.8 4.5-1.2 1.8-2.3 9.8-4.1 30-2.4 27.2-2.4 27.5-.5 29.5 1.5 1.6 2.9 2.1 6.1 1.8 5.5-.4 5.7-2.1.4-3.2-5.2-1.2-5.1.6-2.3-29.6 1.1-11.8 2-22.3 2-23.3 0-.9.9-2.6 2-3.7 1.8-1.8 3.3-2 13.5-2 14.1 0 14.9-.5 15.9-10.4 1.6-15.9 8.6-30.5 20.2-42 12.6-12.7 27.7-19.4 45.4-20.3 12.6-.6 21.9 1.4 34 7.3 7.9 3.9 10.9 6.1 18.1 13.3 12.2 12.3 18.1 24.8 20.4 43.4 1 7.8 2.7 8.7 16.6 8.7 8.3 0 12 .4 12.7 1.3 1.1 1.3 18.3 186.5 17.5 188-.6.9-232.3.9-232.3-.1 0-.4.9-12.1 2.2-26l2.2-25.4 3.7.6c2.5.4 4 .2 4.8-.8 1.5-1.8.8-2.2-5-3-3.3-.5-4.9-.3-5.7.7-.7.7-2.1 11.4-3.2 23.8-1.1 12.3-2.2 24.3-2.5 26.7-.4 3.3 0 4.7 1.5 6.2 2 2 3.7 2 118.3 2 115.7 0 116.4 0 118.2-2 1.8-2 1.6-4.6-6.7-96.7l-8.5-94.6-2.7-2.4c-2.5-2.1-3.6-2.3-14-2.3-12.3 0-13.6-.5-13.6-5.5 0-10.9-7.9-30.1-16.7-40.7-15.8-18.9-41.7-29.2-65.3-25.9zm-223 18.6v7.5h-7.5c-7.3 0-7.5.1-7.5 2.5s.2 2.5 7.5 2.5h7.5v7.5c0 7.3.1 7.5 2.5 7.5s2.5-.2 2.5-7.5V126h7.5c7.3 0 7.5-.1 7.5-2.5s-.2-2.5-7.5-2.5H160v-7.5c0-7.3-.1-7.5-2.5-7.5s-2.5.2-2.5 7.5z"/><path d="M372 122.6c-13.9 3.6-26.2 12.2-34.7 24.2-8.3 11.6-9.7 20.3-3.7 23.1 1.8.8 17.8 1.1 54.5 1.1h52l2.4-2.5c3.3-3.3 3.2-6.7-.8-14.3-8-15.7-22.4-27.3-39.3-31.6-7.7-2-22.9-2-30.4 0zm26.5 2.9c11.1 2.3 20.9 7.7 29 15.9 7.8 7.9 13.8 18 13.3 22.4l-.3 2.7h-52.9c-60.7 0-56.9.6-52.6-8.6 7.6-16.4 22.9-28.6 40.5-32.4 8-1.8 14.5-1.8 23 0zm-176.7 9.2-11.6.4 9.5 15.4c5.2 8.5 9.8 15.5 10.2 15.5.4 0 4.1-7.2 8.3-16l7.6-16-6.1.2c-3.4.1-11.4.4-17.9.5zm19.2 2.7c0 1.7-11.4 23.6-11.9 23-2.8-3.3-13.1-21.5-12.6-22.4.6-.9 24.5-1.6 24.5-.6zm352.6 7.4c-.2.4-1.3 3.7-2.5 7.4l-2.2 6.6-6.9-2.3c-7.1-2.4-8-2.3-8 .5 0 1.2 1.8 2.2 6.1 3.5 3.4 1 6.3 2.4 6.5 2.9.2.6-.5 4-1.6 7.6-1.5 4.9-1.7 6.6-.7 7.2 2.2 1.4 3.2.2 5.1-6.5 1-3.7 2.4-6.7 3-6.7.6 0 3.8.9 7.1 1.9 3.3 1.1 6.4 1.5 6.9 1.1 1.6-1.6-.2-3.6-4.5-4.9-2.3-.7-5.3-1.7-6.5-2.2l-2.3-.8 2.4-7.2c1.4-4 2.5-7.3 2.5-7.5 0-.6-4.1-1.1-4.4-.6zm-475 42.2c-4.2 1.3-9.5 6.8-10.7 11.2-1.9 7.1 1.7 15 8.3 18.4 4 2.1 11.7 1.8 15.6-.6 4.6-2.8 7.2-7.6 7.2-13.3 0-7.9-4.2-13.6-11.5-15.6-4.6-1.2-4.9-1.2-8.9-.1zm11.2 5c6.8 4.1 7.8 13.3 2.1 18.9-5.6 5.7-14.8 4.7-18.9-2.1-3.6-6-1.8-13.1 4.3-16.8 4.1-2.5 8.3-2.5 12.5 0zM266 232.6c-3.9 1.7-5.4 3.5-3.8 4.5 1.2.7 7.8-1.9 9-3.6.7-1 .1-2.5-1-2.5-.4.1-2.3.8-4.2 1.6zm35.3 2c-1.9.8-.4 3.1 3.3 5.4 4.1 2.4 5.4 2.5 5.4.6 0-1.3-6-6.7-7.1-6.5-.2 0-.9.3-1.6.5zm-51.6 11.2c-3.6 5.5-2 7.7 2.2 3.1 3.2-3.5 4.1-6.9 1.7-6.9-.7 0-2.5 1.7-3.9 3.8zm64.9 3.8c-.6 1.6 1.9 7.4 3.8 8.6 2 1.3 2.6-.7 1.4-4.5-1.3-4.3-4.2-6.6-5.2-4.1zm-36.2 3.8c-2.1 1-3.6 2.7-4.7 5.5-1.9 4.6-2.2 14.8-.7 20 2.8 10 14.2 12 19.2 3.5 4.7-8.1 2.7-24.7-3.5-28.4-3.7-2.3-6-2.4-10.3-.6zm10.6 4.8c1.6 2.6 2 5.1 2 11.8 0 10.8-2.1 15-7.4 15-6.3 0-9.7-8.4-8.1-20 .9-6.6 3.6-10 8.1-10 2.8 0 3.8.6 5.4 3.2zm-46.1 4.5c-1.3 3.5-.8 6.8 1.1 6.8.9 0 1.7-1.3 2-3.5 1-6.1-1.1-8.4-3.1-3.3zm76.7 6.5c-2.1 6.4.2 13.1 2.4 7.2.6-1.5 1-3.9.8-5.3-.3-2.7-2.5-4-3.2-1.9zm31.1 3.6c-4 4.4-.6 10.6 5.4 10 4.7-.4 7.1-4.6 4.9-8.6-2-3.5-7.7-4.3-10.3-1.4zm73.9-.3c-2.1 2.2-2 6.8.2 8.8 1.9 1.8 5.9 2.2 7.9.9 2.2-1.4 3.2-5.7 1.9-8.3-1.5-3-7.5-3.9-10-1.4zm-180 8.1c-.6 1.7 2.9 9.4 4.3 9.4 1.9 0 2-3.3.1-7.1-2.2-4.2-3.4-4.8-4.4-2.3zm-194.9 5.2c-2.2 2.5-2.2 7.5.1 9.5C55 300 63 297.1 63 290.6c0-1.9-.8-4-1.8-4.9-2.6-2.3-9.4-2.2-11.5.1zm39.9-.2c-2.3 2.3-2 7.7.5 10 2 1.8 4.5 1.9 47.3 2.2 54.1.4 79-.4 81.1-2.5.8-.8 1.5-3 1.5-4.8 0-6.9 3.7-6.5-66-6.5-55.8 0-63 .2-64.4 1.6zm470.7.4c-4.6 1.9-5.4 9.8-1.3 12 1.2.6 24.8 1 63.7 1 51.6 0 62.2-.2 63.8-1.4 2.3-1.7 2.7-8.8.7-10.8-1-1-14.5-1.3-63-1.5-34.4-.1-62.7.2-63.9.7zm155.9.6c-2.8 2-3.1 8.3-.4 10.7 2.6 2.4 8.7 2.2 11.2-.3 6.2-6.2-3.5-15.5-10.8-10.4zm-707.7.1c-6.3.6-8.9 6.5-4.3 9.7 3.4 2.4 16.9 2.2 19.1-.2 2-2.2 2.2-6.5.5-7.9-1.6-1.3-9.9-2.1-15.3-1.6zm303.8 3.8c-2.7 4-2.9 5.5-.9 5.5 1.9 0 7-6.6 6.1-8-1.2-1.9-3-1-5.2 2.5zm444.2-1.8c-3.4.9-4.5 2.4-4.5 5.9 0 4.8 2.1 5.5 12.7 4.6l8.8-.7.3-3.9c.2-2.1 0-4.2-.5-4.7-1-1-14.1-2-16.8-1.2zM256 297.3c0 1.8 5.6 6.7 7.6 6.7 2.6 0 1.4-2.5-2.4-5-4.9-3.3-5.2-3.4-5.2-1.7zm41.3 5.3c-3.8 1.6-4.7 2.8-3 4.2 1.6 1.4 7.2-1 8.7-3.7.9-1.8.8-2.1-.7-2-1 0-3.2.7-5 1.5zm84.5 1.8c-8.6 2.3-11.8 5.9-9.4 10.8 1.5 2.9 5.5 3.5 10.7 1.4 7.7-3.1 19.9-1.6 26.9 3.4 3.6 2.6 8.6 2.6 10 .1 2.2-4.2 1.2-6.9-3.7-10.2-9.1-6.3-23.2-8.6-34.5-5.5zM86.6 323c-6.1 1.9-10.6 8.3-10.6 15 0 8.8 5.5 15 14.1 15.8 6 .6 10-1 13.8-5.4 6.7-7.5 4.2-19.6-4.9-24.2-4.6-2.3-7.6-2.6-12.4-1.2zm11.4 4.6c8.6 5.1 7.6 18.2-1.7 22.1-9.6 4-19.9-6.5-15.9-16.1 2.8-6.6 11.5-9.6 17.6-6zm58.1 3.8c-1.9 2.3-1.7 7.7.4 9.2 2.6 2 16.8 1.9 18.4 0 1.6-2 1.7-7.2.1-9.1-1.7-2.1-17.2-2.2-18.9-.1zm39.5.2c-.9.8-1.6 2.8-1.6 4.4 0 6 .1 6 33.9 6 28.6 0 30.9-.1 32.4-1.8 2.4-2.6 2.2-7.9-.2-9.2-1.2-.6-13.4-1-32.5-1-26.4 0-30.7.2-32 1.6zm326.8.1c-6.5.5-8.9 2.8-7.9 7.3.5 2.1 1.5 3.4 3.3 4.1 1.5.6 14.6.9 32.5.7 28.2-.3 29.9-.4 31.3-2.2 2-2.8 1.7-6-.7-8.2-1.9-1.7-4.1-1.9-27.7-2-14.1-.1-28 0-30.8.3zm82.1-.1c-2.8.8-4.5 3.3-4.5 6.5 0 4.2 3.2 5.9 11 5.9 8.1 0 11-1.7 11-6.4 0-1.9-.7-3.9-1.5-4.6-1.6-1.3-12.6-2.2-16-1.4zM65.2 383.2c-2 2-1.5 7.6.7 8.8 2.5 1.3 10.7 1.3 13.2 0 2.2-1.2 2.7-6.8.7-8.8-1.6-1.6-13-1.6-14.6 0zm46.5.6c-2.2 2.4-2.1 5.5.1 7.5 1.6 1.5 5.3 1.7 30.8 1.7 24.6 0 29.3-.2 31.2-1.6 2.7-1.8 2.9-5.5.4-7.7-1.6-1.5-5.3-1.7-31.4-1.7-27.3 0-29.6.1-31.1 1.8zm588.1-.1c-1.4.2-3.2 1-3.8 1.8-1.9 2.3-.8 6.8 2 8.3 3 1.5 11.2 1.1 13.5-.8 1.8-1.5 2-6.4.3-7.8-1.6-1.2-8.4-2.1-12-1.5zm-97.6 1.5c-1.7 1.7-1.5 6.3.5 7.9 1.2 1.1 7.8 1.5 30 1.7 24.6.3 28.8.1 30.9-1.3 2.6-1.7 3.3-6.2 1.2-8.3-1.7-1.7-60.9-1.7-62.6 0z"/></svg>